<svg xmlns="http://www.w3.org/2000/svg" viewBox="0 0 171.41 171.26"><defs><style>.cls-1{fill:#424544;}.cls-2{fill:#52b683;}</style></defs><g id="&#x5716;&#x5C64;_2" data-name="&#x5716;&#x5C64; 2"><g id="Layer_1" data-name="Layer 1"><path class="cls-1" d="M96,164.22c38.68-4.9,70.55-38.93,69-81.55S128.36,6.74,86.59,6.33a79.53,79.53,0,0,0-80,72.77C3.05,123.66,36.2,159.53,76,164.19V103.37l-39,23-3.87-4.92,49-29.13v78.95c-27.63-1.88-50-13.62-66.26-36.11C3.42,117.89-1.61,98.38.45,77.2A85.63,85.63,0,0,1,88.89.07C112.2,1,132.05,10,148.05,27c15.85,16.79,23.65,37,23.35,60.06a85.7,85.7,0,0,1-82,84.18V91.41l48.87,29.15-3.86,4.93L95.56,102.3C95.72,123,95.88,143.59,96,164.22Z"></path><path class="cls-1" d="M135.52,46.26l3.68,5.1L89.06,79.66q-.36-28.68-.7-57.1c1,0,2,0,2.92,0s1.82.24,2.73.29c.56,0,.67.27.68.78.07,7.45.17,14.89.25,22.34s.19,14.88.27,22.33c0,.23,0,.46,0,.81Z"></path><path class="cls-1" d="M94.5,85.8l48.5-29,2.49,5.78L106.81,85.8l38.3,22.29-2.58,5.65Z"></path><path class="cls-1" d="M82.39,78.26,34,52.26l3.52-5.1L75.88,67.72c-.23-14.8-.46-29.48-.69-44.25l6.14-.9C81.69,41.18,82,59.67,82.39,78.26Z"></path><path class="cls-1" d="M28.07,64c.83-1.94,1.64-3.84,2.48-5.79L76.6,85.62,31.4,113.2c-.69-1.49-1.38-2.91-2-4.36s-.59-1.45.76-2.27L63.86,86c.17-.1.33-.22.58-.38Z"></path><path class="cls-2" d="M101.7,55.45c.59-11.45,1.17-22.78,1.76-34.21.46.12.88.19,1.29.32,1.54.47,3.07,1,4.61,1.44a.49.49,0,0,1,.4.6c-.2,3.7-.39,7.41-.57,11.11l-.42,8.55c0,.09,0,.19,0,.38l17.9-10.86c1.66,1.48,3.34,3,5.11,4.56Z"></path><path class="cls-2" d="M150.23,99.51,123.65,84.57l26.72-17c.2,1,.4,1.91.57,2.85.21,1.15.37,2.32.59,3.47a.74.74,0,0,1-.43.86q-7.26,4.62-14.5,9.27c-.19.11-.37.24-.6.39l.57.34c4.83,2.66,9.66,5.33,14.5,8a.68.68,0,0,1,.43.88C151.06,95.51,150.66,97.46,150.23,99.51Z"></path><path class="cls-2" d="M112.16,127.27v17.66l-6.57.87V116.5l27.21,14.21L130.23,133c-.77.66-1.57,1.3-2.34,2a.78.78,0,0,1-1,.07c-4.69-2.5-9.39-5-14.09-7.46Z"></path><path class="cls-2" d="M41.2,131.36l27.08-14.13V146.5l-6.53-.86V128l-.55.27L47,135.75c-.3.16-.54.28-.85,0-1.62-1.42-3.26-2.82-4.88-4.23C41.23,131.51,41.23,131.46,41.2,131.36Z"></path><path class="cls-2" d="M42.22,38.89c1.66-1.56,3.21-3,4.79-4.45a.83.83,0,0,1,.72,0c4.32,2.13,8.62,4.29,12.93,6.44l2,1a1.68,1.68,0,0,0,.06-.26q-.15-5.44-.31-10.89c-.06-1.8-.13-3.59-.17-5.39a.71.71,0,0,1,.3-.54c1.91-.77,3.84-1.52,5.77-2.26a.81.81,0,0,1,.24,0c.3,9.94.59,19.88.88,29.93Z"></path><path class="cls-2" d="M26,70.19,50.08,84,26.52,99.5c-.26-1.32-.51-2.56-.73-3.8-.16-.86-.23-1.74-.42-2.6-.09-.4.06-.56.35-.75L37.15,84.8l.58-.4-.51-.32q-5.89-3.39-11.81-6.78a.68.68,0,0,1-.41-.84c.31-1.93.59-3.86.89-5.78A3,3,0,0,1,26,70.19Z"></path></g></g></svg>