<svg xmlns="http://www.w3.org/2000/svg" id="Layer_1" data-name="Layer 1" viewBox="0 0 552.7 189.19"><defs><style>.cls-1{fill:#424544;}.cls-2{fill:#52b683;}</style></defs><path class="cls-1" d="M105.59,171.58c38.68-4.9,70.55-38.93,69-81.55S137.9,14.1,96.13,13.69a79.52,79.52,0,0,0-80,72.76c-3.56,44.57,29.6,80.44,69.42,85.1V110.73l-39,23L42.7,128.8l49-29.13v79c-27.63-1.88-50-13.62-66.26-36.12C13,125.25,7.93,105.74,10,84.56A85.63,85.63,0,0,1,98.43,7.43c23.31,1,43.17,10,59.16,26.92,15.85,16.79,23.66,36.95,23.35,60.06a85.7,85.7,0,0,1-82,84.18V98.77l48.88,29.15L144,132.84l-38.86-23.18C105.27,130.36,105.43,151,105.59,171.58Z"></path><path class="cls-1" d="M145.06,53.62c1.23,1.71,2.43,3.37,3.69,5.1L98.6,87q-.34-28.68-.7-57.1c1,0,2-.05,2.92,0s1.82.24,2.73.29c.56,0,.68.27.68.78q.12,11.18.26,22.33l.27,22.34v.81Z"></path><path class="cls-1" d="M104,93.15l48.51-29L155,70,116.35,93.15l38.31,22.3c-.86,1.87-1.7,3.72-2.59,5.65Z"></path><path class="cls-1" d="M91.93,85.62l-48.36-26,3.52-5.1L85.43,75.07c-.24-14.79-.47-29.47-.7-44.24l6.15-.9C91.23,48.54,91.58,67,91.93,85.62Z"></path><path class="cls-1" d="M37.61,71.38c.83-1.94,1.64-3.84,2.48-5.79L86.14,93l-45.2,27.58c-.69-1.49-1.38-2.91-2-4.37s-.6-1.44.75-2.26L73.41,93.35,74,93Z"></path><path class="cls-2" d="M111.25,62.81C111.83,51.36,112.42,40,113,28.6c.47.11.89.19,1.29.31l4.61,1.45c.32.09.42.26.4.6-.2,3.7-.38,7.41-.57,11.11q-.21,4.27-.41,8.55a2.67,2.67,0,0,0,0,.38l17.91-10.86,5.11,4.56Z"></path><path class="cls-2" d="M159.77,106.87,133.2,91.93l26.71-17c.2,1,.4,1.91.57,2.85.21,1.15.38,2.32.59,3.47a.74.74,0,0,1-.43.86q-7.26,4.62-14.5,9.27l-.6.39.57.34c4.84,2.66,9.66,5.33,14.51,8a.68.68,0,0,1,.42.88C160.6,102.87,160.2,104.82,159.77,106.87Z"></path><path class="cls-2" d="M121.71,134.63v17.66l-6.58.87v-29.3l27.21,14.21c-.89.79-1.72,1.55-2.57,2.29s-1.57,1.3-2.33,2a.78.78,0,0,1-1,.08c-4.7-2.5-9.4-5-14.1-7.46Z"></path><path class="cls-2" d="M50.75,138.72l27.08-14.14v29.28L71.3,153V135.34l-.56.27-14.2,7.5c-.3.16-.55.28-.86,0-1.62-1.42-3.25-2.82-4.88-4.23C50.77,138.86,50.77,138.82,50.75,138.72Z"></path><path class="cls-2" d="M51.76,46.25c1.66-1.56,3.21-3,4.79-4.45a.83.83,0,0,1,.72,0c4.32,2.13,8.63,4.29,12.94,6.44l2,1a2.15,2.15,0,0,0,.07-.26c-.11-3.63-.21-7.26-.32-10.89,0-1.8-.13-3.59-.16-5.39a.67.67,0,0,1,.29-.54c1.92-.77,3.85-1.52,5.77-2.26a.88.88,0,0,1,.25,0c.29,9.94.58,19.88.88,29.93Z"></path><path class="cls-2" d="M35.58,77.55l24,13.85L36.06,106.86c-.26-1.32-.51-2.56-.73-3.8-.16-.86-.23-1.74-.42-2.6a.61.61,0,0,1,.36-.75l11.42-7.55.58-.4-.5-.32Q40.86,88.05,35,84.66a.69.69,0,0,1-.41-.84c.32-1.93.6-3.86.89-5.78A4.39,4.39,0,0,1,35.58,77.55Z"></path><path class="cls-1" d="M195.18,64V53.54h35.13V64H218.18v41.5H207.73V64Z"></path><path class="cls-1" d="M234.38,89.29v-23h11V89.46a6,6,0,0,0,2.3,5.05,8.76,8.76,0,0,0,5.54,1.79,8.64,8.64,0,0,0,5.44-1.79,6,6,0,0,0,2.3-5.05V66.29h11V89.37a6.13,6.13,0,0,0,2.3,5.09,8.4,8.4,0,0,0,5.43,1.84,8.64,8.64,0,0,0,5.49-1.84,6.08,6.08,0,0,0,2.35-5.09V66.29h11V89.35q0,8.3-5.91,12.74a22.19,22.19,0,0,1-13.74,4.45q-8.16,0-12.45-4.49a46.15,46.15,0,0,1-5.59,3,19,19,0,0,1-8,1.51,22.76,22.76,0,0,1-12.18-3.92Q234.39,98.71,234.38,89.29Z"></path><path class="cls-1" d="M309.55,71.42a20.34,20.34,0,0,1,15.37-6.48,22,22,0,0,1,8.36,1.62,19.65,19.65,0,0,1,6.9,4.7,20.92,20.92,0,0,1,4.39,6.9A21.27,21.27,0,0,1,346,85.84q0,8.37-4.34,13a24.83,24.83,0,0,1-8.31,6.27,22.25,22.25,0,0,1-8.47,1.62,19.77,19.77,0,0,1-15.21-6.37,20.9,20.9,0,0,1-.16-29Zm7.63,21.73a10.14,10.14,0,0,0,7.63,3.15,9.72,9.72,0,0,0,7.48-3,11,11,0,0,0,0-14.61,10.69,10.69,0,0,0-15,.1,10.26,10.26,0,0,0-2.88,7.2A10.42,10.42,0,0,0,317.18,93.15Z"></path><path class="cls-1" d="M350.32,64V53.54h35.13V64H373.32v41.5H362.87V64Z"></path><path class="cls-1" d="M410,65.25V75.7c-3.34,0-5.75.61-7.21,1.83a6.63,6.63,0,0,0-2.2,5.39V105.5h-11V82.92c0-5.86,1.58-10.26,4.75-13.23S402.76,65.25,410,65.25Z"></path><path class="cls-1" d="M432.68,95.88a8.72,8.72,0,0,0,2.8.42,10.35,10.35,0,0,0,6.38-2.14,10.17,10.17,0,0,0,3.78-5.81q3.53.63,6.95,1.31t3.42,1a17.65,17.65,0,0,1-7.18,11.56,21.91,21.91,0,0,1-13.52,4.54,28.42,28.42,0,0,1-7.59-1.46q-4.89-1.47-9-7a20.75,20.75,0,0,1-4-12.55,32.41,32.41,0,0,1,1.1-7.27q1.1-4.55,7-9.09a21.3,21.3,0,0,1,13.33-4.55c1.74,0,5,.68,9.67,2S453.92,72.6,456,80L430.29,94.84A7.73,7.73,0,0,0,432.68,95.88ZM425.21,85.7l15.33-8.85a8,8,0,0,0-2.14-.78L437,75.81a5.8,5.8,0,0,0-1.14-.11A10.51,10.51,0,0,0,429.33,78a10,10,0,0,0-3.81,5.73Z"></path><path class="cls-1" d="M480.45,95.88a8.8,8.8,0,0,0,2.8.42,10.4,10.4,0,0,0,10.17-8c2.35.42,4.66.86,6.95,1.31s3.42.78,3.42,1a17.68,17.68,0,0,1-7.18,11.56,21.91,21.91,0,0,1-13.52,4.54,28.35,28.35,0,0,1-7.59-1.46q-4.89-1.47-8.95-7a20.7,20.7,0,0,1-4.06-12.55,33,33,0,0,1,1.1-7.27q1.1-4.55,7-9.09a21.28,21.28,0,0,1,13.32-4.55q2.63,0,9.67,2T503.79,80L478.07,94.84A7.69,7.69,0,0,0,480.45,95.88ZM473,85.7l15.33-8.85a7.81,7.81,0,0,0-2.13-.78c-.6-.1-1.06-.19-1.41-.26a5.83,5.83,0,0,0-1.15-.11A10.53,10.53,0,0,0,477.1,78a10,10,0,0,0-3.8,5.73Z"></path><path class="cls-1" d="M508.49,94.1c3.56,0,6-.9,7.37-2.71a11,11,0,0,0,2-6.8q0-9.09,3.29-14.17t16.26-5.07v11.5q-5.33,0-6.53,1.94t-2,8.83a30,30,0,0,1-4.18,12.44q-3.4,5.55-16.26,5.54Z"></path><path class="cls-2" d="M223.88,129.9a9.09,9.09,0,0,1-1.92,2.77,8.55,8.55,0,0,1-2.84,1.82,10.33,10.33,0,0,1-7.8-.24,9.47,9.47,0,0,1-3.15-2.39,10.39,10.39,0,0,1-1.94-3.5,13.11,13.11,0,0,1-.67-4.23,13.75,13.75,0,0,1,.68-4.37,10.53,10.53,0,0,1,2-3.57,9.08,9.08,0,0,1,3.2-2.42,10.07,10.07,0,0,1,4.35-.89,10.57,10.57,0,0,1,3.22.5,9.36,9.36,0,0,1,2.81,1.45,7.9,7.9,0,0,1,2,2.31,7.5,7.5,0,0,1,.95,3.15H222a4.92,4.92,0,0,0-.69-2.11,5.85,5.85,0,0,0-1.46-1.6,6.75,6.75,0,0,0-2-1,6.86,6.86,0,0,0-2.17-.36,6.62,6.62,0,0,0-3.25.77,6.89,6.89,0,0,0-2.3,2,8.74,8.74,0,0,0-1.36,2.85,12.23,12.23,0,0,0,0,6.43,8.56,8.56,0,0,0,1.32,2.79,6.88,6.88,0,0,0,2.21,2,6.28,6.28,0,0,0,3.13.75,6.68,6.68,0,0,0,2.61-.48A5.75,5.75,0,0,0,220,131a6.93,6.93,0,0,0,1.31-2,9.28,9.28,0,0,0,.68-2.55h2.78A11.18,11.18,0,0,1,223.88,129.9Z"></path><path class="cls-2" d="M235.73,121.14a4.06,4.06,0,0,0-1.9.42,3.78,3.78,0,0,0-1.35,1.12,5.11,5.11,0,0,0-.8,1.62,7.12,7.12,0,0,0-.26,1.92v8.41h-2.57V119.4h2.57v3a4.9,4.9,0,0,1,2-2.52,6.12,6.12,0,0,1,3.21-.81H237a1.58,1.58,0,0,1,.32,0Z"></path><path class="cls-2" d="M250.59,131.56a6.25,6.25,0,0,1-1.46,1.86,6.17,6.17,0,0,1-2.07,1.16,7.71,7.71,0,0,1-2.53.41,7.32,7.32,0,0,1-3.05-.61,6.6,6.6,0,0,1-2.29-1.65,7.73,7.73,0,0,1-1.45-2.46,8.94,8.94,0,0,1-.51-3,10.14,10.14,0,0,1,.5-3.21,7.6,7.6,0,0,1,1.45-2.6,6.77,6.77,0,0,1,2.35-1.74,7.71,7.71,0,0,1,3.2-.63,8.26,8.26,0,0,1,2.41.35,6.47,6.47,0,0,1,2,1,5.64,5.64,0,0,1,1.45,1.69,6,6,0,0,1,.7,2.3l-11.45,4.18a5.72,5.72,0,0,0,.49,1.71,5.06,5.06,0,0,0,.94,1.4,4.07,4.07,0,0,0,1.39.94,4.76,4.76,0,0,0,1.87.34,4.59,4.59,0,0,0,1.64-.28,4.07,4.07,0,0,0,1.33-.8,3.69,3.69,0,0,0,.92-1.24,4.77,4.77,0,0,0,.42-1.61h2.45A6.65,6.65,0,0,1,250.59,131.56Zm-3.33-9.8a4.12,4.12,0,0,0-2.47-.73,5,5,0,0,0-2.2.45,4.4,4.4,0,0,0-1.53,1.22,5.28,5.28,0,0,0-.92,1.78,7.78,7.78,0,0,0-.34,2.13V127l8.86-3.2A3.81,3.81,0,0,0,247.26,121.76Z"></path><path class="cls-2" d="M267.37,134.63v-2.09a5.16,5.16,0,0,1-2.11,1.81,6.67,6.67,0,0,1-3,.64,7.57,7.57,0,0,1-3-.59,6.84,6.84,0,0,1-2.31-1.64,7.39,7.39,0,0,1-1.48-2.47,8.93,8.93,0,0,1-.52-3.06,9.86,9.86,0,0,1,.51-3.21,7.48,7.48,0,0,1,1.47-2.6,7.09,7.09,0,0,1,2.38-1.74,7.63,7.63,0,0,1,3.17-.63,6.92,6.92,0,0,1,2.79.56,5.13,5.13,0,0,1,2.11,1.65V119.4h2.57v15.23Zm0-10.14a2.56,2.56,0,0,0-.41-1.38,4,4,0,0,0-1.06-1.1,6,6,0,0,0-1.45-.72,4.74,4.74,0,0,0-1.54-.26,5.38,5.38,0,0,0-2.53.53,4.57,4.57,0,0,0-1.67,1.39,5.63,5.63,0,0,0-.92,2,9.77,9.77,0,0,0-.28,2.29,7.7,7.7,0,0,0,.33,2.3,5.16,5.16,0,0,0,1,1.83,4.28,4.28,0,0,0,1.61,1.22,5.58,5.58,0,0,0,2.3.44,5.76,5.76,0,0,0,1.71-.26,4.93,4.93,0,0,0,1.49-.78,3.94,3.94,0,0,0,1.06-1.24,3.26,3.26,0,0,0,.4-1.63Z"></path><path class="cls-2" d="M277.11,121.11v13.52h-2.57V121.11H273V119.4h1.59v-3.6l2.57-1.62v5.22h1.6v1.71Z"></path><path class="cls-2" d="M284.79,114.47a1.39,1.39,0,0,1-.56,1.15,2,2,0,0,1-1.24.45,1.87,1.87,0,0,1-1.23-.45,1.41,1.41,0,0,1-.55-1.15,1.44,1.44,0,0,1,.55-1.15,1.91,1.91,0,0,1,1.23-.44,2,2,0,0,1,1.24.44A1.42,1.42,0,0,1,284.79,114.47Zm-3.07,20.16V119.4h2.57v15.23Z"></path><path class="cls-2" d="M295.29,134.63h-2.68l-5.32-15.23H290l4,11.16,3.95-11.16h2.72Z"></path><path class="cls-2" d="M316.5,131.56a6.06,6.06,0,0,1-3.52,3,7.82,7.82,0,0,1-2.54.41,7.27,7.27,0,0,1-3-.61,6.64,6.64,0,0,1-2.3-1.65,7.53,7.53,0,0,1-1.44-2.46,8.94,8.94,0,0,1-.51-3,10.14,10.14,0,0,1,.49-3.21,7.6,7.6,0,0,1,1.45-2.6,6.87,6.87,0,0,1,2.35-1.74,7.71,7.71,0,0,1,3.2-.63,8.26,8.26,0,0,1,2.41.35,6.36,6.36,0,0,1,2,1,5.64,5.64,0,0,1,1.45,1.69,6.2,6.2,0,0,1,.71,2.3l-11.46,4.18a5.72,5.72,0,0,0,.49,1.71,5.29,5.29,0,0,0,.94,1.4,4.07,4.07,0,0,0,1.39.94,4.78,4.78,0,0,0,1.88.34,4.54,4.54,0,0,0,1.63-.28,4,4,0,0,0,1.33-.8,3.69,3.69,0,0,0,.92-1.24,5,5,0,0,0,.43-1.61h2.45A6.66,6.66,0,0,1,316.5,131.56Zm-3.33-9.8a4.1,4.1,0,0,0-2.47-.73,5,5,0,0,0-2.2.45A4.4,4.4,0,0,0,307,122.7a5.28,5.28,0,0,0-.92,1.78,8.18,8.18,0,0,0-.34,2.13V127l8.86-3.2A3.75,3.75,0,0,0,313.17,121.76Z"></path><path class="cls-2" d="M341.79,134.63v-9.5h-7.38v9.5H331.6V119.31a6.48,6.48,0,0,1,1.65-4.81,6.67,6.67,0,0,1,4.85-1.62,5.78,5.78,0,0,1,6.49,6.43v15.32Zm0-14.73a10.08,10.08,0,0,0-.17-1.87,4,4,0,0,0-.59-1.52,3,3,0,0,0-1.13-1,4.59,4.59,0,0,0-3.61,0,3,3,0,0,0-1.13,1,4,4,0,0,0-.59,1.52,10.1,10.1,0,0,0-.16,1.87v3h7.38Z"></path><path class="cls-2" d="M362.08,131.56a6.25,6.25,0,0,1-1.46,1.86,6.17,6.17,0,0,1-2.07,1.16A7.77,7.77,0,0,1,356,135a7.31,7.31,0,0,1-3-.61,6.73,6.73,0,0,1-2.3-1.65,7.4,7.4,0,0,1-1.46-2.46,8.94,8.94,0,0,1-.52-3,10.14,10.14,0,0,1,.5-3.21,7.81,7.81,0,0,1,1.47-2.6,6.81,6.81,0,0,1,2.36-1.74,7.71,7.71,0,0,1,3.2-.63,7.94,7.94,0,0,1,2.41.36,6.29,6.29,0,0,1,2,1.06,5.66,5.66,0,0,1,1.44,1.71,6,6,0,0,1,.71,2.33h-2.45a3.91,3.91,0,0,0-1.34-2.57,4.15,4.15,0,0,0-2.73-.91,4.84,4.84,0,0,0-2.33.51,4.38,4.38,0,0,0-1.55,1.38,5.54,5.54,0,0,0-.87,2,9.89,9.89,0,0,0-.27,2.32,8.1,8.1,0,0,0,.28,2.16,5.53,5.53,0,0,0,.86,1.85,4.27,4.27,0,0,0,1.49,1.3,5,5,0,0,0,3.79.2,4.07,4.07,0,0,0,1.33-.8,3.66,3.66,0,0,0,.91-1.24,4.77,4.77,0,0,0,.43-1.61h2.45A6.84,6.84,0,0,1,362.08,131.56Z"></path><path class="cls-2" d="M369.47,121.11v13.52h-2.56V121.11h-1.6V119.4h1.6v-3.6l2.56-1.62v5.22h1.6v1.71Z"></path><path class="cls-2" d="M377.15,114.47a1.39,1.39,0,0,1-.56,1.15,2,2,0,0,1-1.24.45,1.89,1.89,0,0,1-1.23-.45,1.4,1.4,0,0,1-.54-1.15,1.43,1.43,0,0,1,.54-1.15,1.93,1.93,0,0,1,1.23-.44,2,2,0,0,1,1.24.44A1.42,1.42,0,0,1,377.15,114.47Zm-3.07,20.16V119.4h2.57v15.23Z"></path><path class="cls-2" d="M395.57,127a10.07,10.07,0,0,1-.46,3,7.52,7.52,0,0,1-1.39,2.55,6.59,6.59,0,0,1-2.32,1.76,8.43,8.43,0,0,1-6.49,0,6.68,6.68,0,0,1-2.32-1.76,7.33,7.33,0,0,1-1.38-2.55,10.08,10.08,0,0,1,0-6,7.29,7.29,0,0,1,1.38-2.56,6.78,6.78,0,0,1,2.32-1.75,8.43,8.43,0,0,1,6.49,0,6.68,6.68,0,0,1,2.32,1.75,7.47,7.47,0,0,1,1.39,2.56A10.07,10.07,0,0,1,395.57,127ZM393,127a8.49,8.49,0,0,0-.28-2.19,6.11,6.11,0,0,0-.87-1.92,4.51,4.51,0,0,0-1.51-1.37,4.47,4.47,0,0,0-5.87,1.37,5.69,5.69,0,0,0-.87,1.92,8.49,8.49,0,0,0-.28,2.19,8.62,8.62,0,0,0,.28,2.2,5.57,5.57,0,0,0,.87,1.93,4.64,4.64,0,0,0,1.5,1.35,4.94,4.94,0,0,0,4.37,0,4.78,4.78,0,0,0,1.51-1.35,6,6,0,0,0,.87-1.93A8.62,8.62,0,0,0,393,127Z"></path><path class="cls-2" d="M410.3,134.63v-9.24a6.11,6.11,0,0,0-.23-1.69,3.72,3.72,0,0,0-.67-1.35,3.35,3.35,0,0,0-1.17-.88,3.93,3.93,0,0,0-1.68-.33,4.11,4.11,0,0,0-1.91.42,3.74,3.74,0,0,0-1.34,1.12,5.11,5.11,0,0,0-.8,1.62,7.12,7.12,0,0,0-.26,1.92v8.41h-2.57V119.4h2.57v3a5,5,0,0,1,2-2.52,6.22,6.22,0,0,1,3.23-.81,5,5,0,0,1,5.35,5.34v10.24Z"></path><path class="cls-2" d="M443.41,128.82a5.46,5.46,0,0,1-2.47,4.85,7.68,7.68,0,0,1-2.56,1.11,11.94,11.94,0,0,1-2.93.36,13.74,13.74,0,0,1-3.06-.37,9.17,9.17,0,0,1-2.91-1.24,6.85,6.85,0,0,1-2.17-2.33,7.25,7.25,0,0,1-.84-3.65h2.81a6,6,0,0,0,.48,2.52,4.48,4.48,0,0,0,1.35,1.7,5.63,5.63,0,0,0,2,.95,10.62,10.62,0,0,0,2.52.29,7.27,7.27,0,0,0,1.8-.22,5.35,5.35,0,0,0,1.6-.69,3.6,3.6,0,0,0,1.13-1.23,3.57,3.57,0,0,0,.43-1.81,3,3,0,0,0-.52-1.85,4,4,0,0,0-1.37-1.14,9.41,9.41,0,0,0-2-.72l-2.42-.6c-.84-.22-1.69-.45-2.53-.7a9.68,9.68,0,0,1-2.29-1,5.08,5.08,0,0,1-1.66-1.6,4.68,4.68,0,0,1-.63-2.55,5.3,5.3,0,0,1,2.44-4.69,7.62,7.62,0,0,1,2.45-1,12.35,12.35,0,0,1,2.78-.32,12.89,12.89,0,0,1,3,.35,7,7,0,0,1,2.47,1.14,5.86,5.86,0,0,1,1.72,2,7.49,7.49,0,0,1,.73,3.1h-2.68a4.69,4.69,0,0,0-.43-2.09,4,4,0,0,0-1.15-1.41,4.64,4.64,0,0,0-1.68-.78,8.36,8.36,0,0,0-2-.24,9.35,9.35,0,0,0-1.71.17,5.31,5.31,0,0,0-1.61.57,3.61,3.61,0,0,0-1.19,1.11,3,3,0,0,0-.47,1.76,2.56,2.56,0,0,0,.6,1.78,4.58,4.58,0,0,0,1.57,1.09,12.41,12.41,0,0,0,2.16.73c.81.19,1.64.4,2.48.62s1.74.48,2.56.73a8.39,8.39,0,0,1,2.15,1,4.76,4.76,0,0,1,1.48,1.64A5.48,5.48,0,0,1,443.41,128.82Z"></path><path class="cls-2" d="M449.5,121.11v13.52h-2.57V121.11h-1.6V119.4h1.6v-3.6l2.57-1.62v5.22h1.59v1.71Z"></path><path class="cls-2" d="M464.73,134.63v-2.95a5.13,5.13,0,0,1-2.07,2.5,6.16,6.16,0,0,1-3.22.81,5,5,0,0,1-5.34-5.34V119.4h2.57v9.24a6.13,6.13,0,0,0,.22,1.7,3.91,3.91,0,0,0,.66,1.34,3.06,3.06,0,0,0,1.16.89,4.59,4.59,0,0,0,3.58-.09,3.85,3.85,0,0,0,1.34-1.12,5,5,0,0,0,.8-1.63,6.73,6.73,0,0,0,.27-1.91V119.4h2.57v15.23Z"></path><path class="cls-2" d="M483.8,134.63v-2.09a5.29,5.29,0,0,1-2.11,1.81,6.74,6.74,0,0,1-3,.64,7.52,7.52,0,0,1-3-.59,6.79,6.79,0,0,1-2.32-1.64,7.39,7.39,0,0,1-1.48-2.47,8.93,8.93,0,0,1-.51-3.06,10.14,10.14,0,0,1,.5-3.21,7.5,7.5,0,0,1,1.48-2.6,7.15,7.15,0,0,1,2.37-1.74,7.68,7.68,0,0,1,3.18-.63,7,7,0,0,1,2.79.56,5.26,5.26,0,0,1,2.11,1.65v-7.88h2.56v21.25Zm0-10.14a2.48,2.48,0,0,0-.42-1.38,3.82,3.82,0,0,0-1.06-1.1,5.78,5.78,0,0,0-1.45-.72,4.73,4.73,0,0,0-1.53-.26,5.43,5.43,0,0,0-2.54.53,4.57,4.57,0,0,0-1.67,1.39,5.61,5.61,0,0,0-.91,2,9.27,9.27,0,0,0-.28,2.29,7.7,7.7,0,0,0,.32,2.3,5.51,5.51,0,0,0,1,1.83,4.28,4.28,0,0,0,1.61,1.22,5.62,5.62,0,0,0,2.3.44,5.76,5.76,0,0,0,1.71-.26,4.93,4.93,0,0,0,1.49-.78,4,4,0,0,0,1.07-1.24,3.36,3.36,0,0,0,.4-1.63Z"></path><path class="cls-2" d="M494,114.47a1.39,1.39,0,0,1-.56,1.15,2,2,0,0,1-1.24.45,1.91,1.91,0,0,1-1.23-.45,1.4,1.4,0,0,1-.54-1.15,1.43,1.43,0,0,1,.54-1.15,2,2,0,0,1,1.23-.44,2,2,0,0,1,1.24.44A1.42,1.42,0,0,1,494,114.47ZM491,134.63V119.4h2.57v15.23Z"></path><path class="cls-2" d="M512.46,127a10.07,10.07,0,0,1-.46,3,7.52,7.52,0,0,1-1.39,2.55,6.59,6.59,0,0,1-2.32,1.76,7.58,7.58,0,0,1-3.24.65,7.66,7.66,0,0,1-3.25-.65,6.68,6.68,0,0,1-2.32-1.76A7.33,7.33,0,0,1,498.1,130a10.08,10.08,0,0,1,0-6,7.29,7.29,0,0,1,1.38-2.56,6.78,6.78,0,0,1,2.32-1.75,7.66,7.66,0,0,1,3.25-.65,7.58,7.58,0,0,1,3.24.65,6.68,6.68,0,0,1,2.32,1.75A7.47,7.47,0,0,1,512,124,10.07,10.07,0,0,1,512.46,127Zm-2.57,0a8.49,8.49,0,0,0-.28-2.19,6.11,6.11,0,0,0-.87-1.92,4.51,4.51,0,0,0-1.51-1.37,4.47,4.47,0,0,0-5.87,1.37,5.69,5.69,0,0,0-.87,1.92,8.49,8.49,0,0,0-.28,2.19,8.62,8.62,0,0,0,.28,2.2,5.57,5.57,0,0,0,.87,1.93,4.64,4.64,0,0,0,1.5,1.35,4.94,4.94,0,0,0,4.37,0,4.78,4.78,0,0,0,1.51-1.35,6,6,0,0,0,.87-1.93A8.62,8.62,0,0,0,509.89,127Z"></path><path class="cls-2" d="M528.6,130.32a4,4,0,0,1-.56,2.22,4.28,4.28,0,0,1-1.47,1.43,6.5,6.5,0,0,1-2,.78,11.32,11.32,0,0,1-4.95-.07,6,6,0,0,1-2.11-1,4.71,4.71,0,0,1-1.4-1.71,5.65,5.65,0,0,1-.51-2.49H518a3.47,3.47,0,0,0,1.19,2.86,5,5,0,0,0,3.15.92,6,6,0,0,0,1.29-.15,4.29,4.29,0,0,0,1.23-.46,3,3,0,0,0,.91-.81,2,2,0,0,0,.37-1.24,2.19,2.19,0,0,0-.32-1.24,2.45,2.45,0,0,0-.92-.78,6.22,6.22,0,0,0-1.41-.52c-.55-.14-1.17-.27-1.83-.41s-1.55-.37-2.23-.56a6.54,6.54,0,0,1-1.77-.79,3.44,3.44,0,0,1-1.18-1.22,3.61,3.61,0,0,1-.43-1.86,3.39,3.39,0,0,1,.43-1.71,3.91,3.91,0,0,1,1.21-1.33,5.87,5.87,0,0,1,1.87-.86,9.61,9.61,0,0,1,2.42-.29,10.61,10.61,0,0,1,2.36.25,5.63,5.63,0,0,1,2,.83,4.22,4.22,0,0,1,1.34,1.5,5,5,0,0,1,.53,2.26h-2.36a2.87,2.87,0,0,0-1.09-2.49,4.46,4.46,0,0,0-2.69-.79,4.67,4.67,0,0,0-1.82.3,3.24,3.24,0,0,0-1.06.69,2.38,2.38,0,0,0-.5.81,2.33,2.33,0,0,0-.13.68,1.71,1.71,0,0,0,.63,1.4,4.92,4.92,0,0,0,1.52.83,12.08,12.08,0,0,0,1.86.5c.65.13,1.2.25,1.65.37s1.09.33,1.61.52a5.56,5.56,0,0,1,1.41.74,3.33,3.33,0,0,1,1.38,2.87Z"></path></svg>